<svg id="Layer_1" data-name="Layer 1" xmlns="http://www.w3.org/2000/svg" viewBox="0 0 49.87 64.79"><defs><style>.cls-1{fill:#211e1c;}.cls-2{fill:#fff;}.cls-3{fill:#64bb46;}.cls-4{fill:#70be47;}.cls-5{fill:#929394;}.cls-6{fill:#e5e5e4;}.cls-7{fill:#58585a;}.cls-8{fill:#fffffc;}.cls-9{fill:#282627;}.cls-10{fill:#70be48;}.cls-11{fill:#292728;}.cls-12{fill:#6ebd45;}.cls-13{fill:#f9f8f6;}.cls-14{fill:#050606;}.cls-15{fill:#595b5c;}.cls-16{fill:#f1f0ec;}.cls-17{fill:#e2e2e1;}.cls-18{fill:#9f9ea0;}.cls-19{fill:#211d1b;}.cls-20{fill:#f5f4f4;}.cls-21{fill:#1b1b19;}.cls-22{fill:#2b2b2a;}.cls-23{fill:#2c2d2d;}.cls-24{fill:#67b550;}.cls-25{fill:#1f1e1a;}.cls-26{fill:#faf9f8;}.cls-27{fill:#f9faf8;}.cls-28{fill:#201d1b;}.cls-29{fill:#111010;}.cls-30{fill:#f9f9f6;}.cls-31{fill:#232524;}.cls-32{fill:#71be4b;}.cls-33{fill:#f0a7a3;}.cls-34{fill:#3f4a50;}.cls-35{fill:#241c1b;}.cls-36{fill:#f6f6f5;}.cls-37{fill:#f2f0eb;}.cls-38{fill:#67bb47;}</style></defs><title>Logo 1</title><path class="cls-1" d="M977.37,535a17.63,17.63,0,0,1,2.25,6c.26,3.3.28,6.53-1.84,9.37a12.54,12.54,0,0,1-2.06,2.18,1.88,1.88,0,0,0-.8,1.81,13.25,13.25,0,0,1,.34,4.48.66.66,0,0,0,.36.74,5.35,5.35,0,0,1,2.38,3.57,29.22,29.22,0,0,1,.1,3.07,3,3,0,0,1-.21.9,6.37,6.37,0,0,1-2.62,3.5c-.73,0-.52-.61-.55-1.11a7,7,0,0,0,2-5.86,4.05,4.05,0,0,0-.85-2.3c-.16-.2-.32-.49-.63-.4s-.27.37-.33.59a27.13,27.13,0,0,1-3.36,7.34,3.25,3.25,0,0,1-.94,1.17c-.43.07-.9.34-1.2-.25a.59.59,0,0,1,0-.3,26.4,26.4,0,0,0,4.27-8.91,11.26,11.26,0,0,0,0-5.65c-.25-.89-.38-1-1.15-.54-.53.29-1.11.47-1.66.71a31.55,31.55,0,0,1-5.57,1.4c-.52.31-1.27-.06-1.62.27s.07,1.06,0,1.63a3.61,3.61,0,0,1-4,3.18,3.66,3.66,0,0,1-3.26-3.7c.06-1.31.06-1.31-1.22-1.49-.2,0-.4,0-.6,0a22.24,22.24,0,0,1-5.43-1.45c-.47-.26-1-.41-1.47-.65-.65-.34-1-.09-1.17.57a11.88,11.88,0,0,0-.11,5.37,23.7,23.7,0,0,0,4.12,9c.24.64,1.14.86,1.07,1.69a4.13,4.13,0,0,1-2.2-.78,28,28,0,0,1-4.17-8.53c-.06-.24-.07-.59-.41-.61s-.45.25-.61.46c-1.09,1.41-.88,3-.69,4.62.16,1.36,1.06,2.36,1.72,3.47,0,.37.3.87-.18,1.11-.79,0-1.22-.68-1.64-1.16a7.37,7.37,0,0,1-.67-1,11.33,11.33,0,0,1-.79-2.77,2.29,2.29,0,0,0-1-1.55,11,11,0,0,1-3.66-4.7,9.38,9.38,0,0,1-.41-2.15,6.86,6.86,0,0,1,0-2.08,10.34,10.34,0,0,1,1.34-3.85c.19-.3.31-.69.79-.64s.52.43.65.77a9.66,9.66,0,0,0,4.11,5.36c.65.38,1.08.52,1.09-.51a12.1,12.1,0,0,1,.25-1.78,2.3,2.3,0,0,0-.86-2.5,10.4,10.4,0,0,1-3.49-9.24,5.87,5.87,0,0,1,.08-1.39,18.13,18.13,0,0,1,2.26-6.41c0-.09.1-.23,0-.28-1.17-1.1-.76-2.46-.67-3.78h0c.57-.89.58-.91-.39-1.42a13.22,13.22,0,0,1-5.88-6,1.84,1.84,0,0,1-.31-1.14c.28-.44.11-1.13.74-1.38.39.16.47.54.61.88a11.23,11.23,0,0,0,2.21,3.46,15.07,15.07,0,0,0,4.6,3,2.32,2.32,0,0,0,1.76-.2c1.89-.69,3.45-1.65,3.57-4a2,2,0,0,0-1.05-1.9,32.93,32.93,0,0,1-4.67-3c-2.91-2.29-3.74-5.34-3.43-8.86a.83.83,0,0,1,.43-.75c1-.13,1.13-.05,1,1,0,.93,0,1.87.07,2.8.26,2.74,2.12,4.37,4.16,5.85.27.19.59.33.84.54,1.49,1.2,2.83,1.69,4.51,0a8.62,8.62,0,0,1,4.51-1.81c.57-.11.94-.28,1-.92,0-1.06.73-1.45,1.64-1.52a16.16,16.16,0,0,1,2.41,0c1.22.06,1.65.44,1.85,1.65a.79.79,0,0,0,.75.76,12.41,12.41,0,0,1,6.25,3,.57.57,0,0,0,.79.09,25.69,25.69,0,0,0,5-3.39,7.09,7.09,0,0,0,2.3-5.47c0-.53,0-1.07,0-1.6-.14-1.31-.07-1.4,1-1.31a9.21,9.21,0,0,1,.12,4.27,8.43,8.43,0,0,1-3,5.13,28.77,28.77,0,0,1-4.42,3c-.68.38-1.62.59-1.67,1.55a4.56,4.56,0,0,0,.84,3.23,6.17,6.17,0,0,0,3,1.78,3.84,3.84,0,0,0,2.9-.18,11.75,11.75,0,0,0,6.31-7.49c.1-.3.07-.68.44-.84.47.11.62.52.83.87.16,1.14-.55,2-.95,3a13.11,13.11,0,0,1-6.08,5.92c-.94.44-.48.87-.16,1.36h0a9.94,9.94,0,0,1,.13,2.83A1.4,1.4,0,0,0,977.37,535Z" transform="translate(-934.89 -507.72)"/><path class="cls-1" d="M936.71,521.09c-.32.43-.23,1.51-.68,1.88a8.58,8.58,0,0,1-1-3.48,10,10,0,0,1-.09-1.06,11.35,11.35,0,0,1,1.82-7.45,2,2,0,0,1,.74-.8,3.53,3.53,0,0,1,2-1.28c.31,0,.7-.19.67.37A16.26,16.26,0,0,0,937.7,512a11,11,0,0,0-1,7.9C936.79,520.32,937,520.71,936.71,521.09Z" transform="translate(-934.89 -507.72)"/><path class="cls-1" d="M983.71,522.05c-.4-.14-.12-1.9-.3-2.21a1.25,1.25,0,0,1-.21-1.13,10,10,0,0,0-2.18-8.22,1.24,1.24,0,0,1-.28-.53c.12-.56.44-.46.78-.22a5.7,5.7,0,0,1,.93.84,10.5,10.5,0,0,1,2.19,5.45,12.55,12.55,0,0,1-.07,3.87C984.51,520.21,984.13,522,983.71,522.05Z" transform="translate(-934.89 -507.72)"/><path class="cls-1" d="M982.45,510.58c-.65,0-.86-1.06-1.67-.77-.72.08-1.28-.64-2-.39-.85,0-1,.78-1,1.49-.15-1.42-.22-1.68-.27-2.13,0-.95.51-1.29,1.45-.92A7.17,7.17,0,0,1,982.45,510.58Z" transform="translate(-934.89 -507.72)"/><path class="cls-1" d="M940.11,509.16a2.11,2.11,0,0,0-1.82.49c-.26.19-.85.8-1.2.85a7.43,7.43,0,0,1,3.63-2.69c.87-.27,1.29.08,1.28,1a15.62,15.62,0,0,1-.22,1.88c0-.73-.28-1.14-1.09-.84A4.49,4.49,0,0,1,940.11,509.16Z" transform="translate(-934.89 -507.72)"/><path class="cls-2" d="M943.53,548.93a11.1,11.1,0,0,1-1.37-8.21c.53-.17.88.23,1.26.45A18.27,18.27,0,0,0,947,542.9a8,8,0,0,0,2.83,2.28c2,.81,3.62.05,5.28-.85a4.22,4.22,0,0,0,1.72-1.55,5.7,5.7,0,0,0,1.14-3.37c.07-1.21.42-1.62,1.64-1.67a3.36,3.36,0,0,1,2.25.26c.38.38.46.93.74,1.36.3.81.31,1.69.68,2.48a2.29,2.29,0,0,0,.7.95l.9.91c2.52,2.3,6.17,2.68,8.41-.37a2,2,0,0,1,.17-.23,1.5,1.5,0,0,1,.58-.45,7.89,7.89,0,0,0,2.86-1.3,2.5,2.5,0,0,1,1.6-.66,12.76,12.76,0,0,1-.76,6.94,27.07,27.07,0,0,1-2.38,2.41,18,18,0,0,1-8.66,3.49,42.63,42.63,0,0,1-8.52.41A26.05,26.05,0,0,1,947,551.35a13.56,13.56,0,0,1-3-2.29C943.85,548.93,943.76,548.68,943.53,548.93Z" transform="translate(-934.89 -507.72)"/><path class="cls-3" d="M978.75,509.42c.84-.71,1.38.11,2,.39a10.35,10.35,0,0,1,2.84,7.86,11.32,11.32,0,0,0-.21,2.17,14.76,14.76,0,0,1-2.85,5.69,10.9,10.9,0,0,1-5,3.29c-1.38.43-2.77-.42-4-1.15-1.72-1-2-2.69-2-4.46,0-.6.43-1,1-1.24a23.22,23.22,0,0,0,5.88-4,7.83,7.83,0,0,0,2.38-5.8C978.78,511.22,978.76,510.32,978.75,509.42Z" transform="translate(-934.89 -507.72)"/><path class="cls-3" d="M940.11,509.16c.43,0,.75.11.58.65-.56,3.74.19,6.81,3.3,9.27a32.72,32.72,0,0,0,4.84,3.08,1.81,1.81,0,0,1,.95,1.4,4.36,4.36,0,0,1-2.24,4.15c-.41.19-.82.39-1.22.6-1.77,1-3.12-.08-4.56-.88a11.47,11.47,0,0,1-5-6.34,16.08,16.08,0,0,1-.59-4.52A9.08,9.08,0,0,1,940.11,509.16Z" transform="translate(-934.89 -507.72)"/><path class="cls-4" d="M970.94,554.89a18,18,0,0,0,1.75-.9c.7-.46,1-.31,1.25.49a12.69,12.69,0,0,1-.21,7.2,28.32,28.32,0,0,1-3.61,7.34,1.66,1.66,0,0,1-.58.54c-.73.26-1.33-.31-2-.34a5.9,5.9,0,0,0-2.74,0c-.47.09-1,.3-1.41-.13a14.63,14.63,0,0,1-.13-4.28,13.1,13.1,0,0,1,3-3.26,34.12,34.12,0,0,0,2.86-2.78,5.91,5.91,0,0,0,1.55-3.3A.92.92,0,0,1,970.94,554.89Z" transform="translate(-934.89 -507.72)"/><path class="cls-4" d="M950.43,569.39a23.12,23.12,0,0,1-4.38-9.69,10.82,10.82,0,0,1,.31-5.35c.21-.63.46-.85,1.07-.53s1.18.57,1.77.86a.7.7,0,0,1,.21.44,6.66,6.66,0,0,0,2.26,4.42c1.46,1.51,3.14,2.79,4.56,4.34a4.77,4.77,0,0,1,.72.83,8,8,0,0,1-.17,4.57,1.88,1.88,0,0,1-1.36.05,6.88,6.88,0,0,0-3.06-.06C951.72,569.29,951.1,569.82,950.43,569.39Z" transform="translate(-934.89 -507.72)"/><path class="cls-5" d="M945.36,533.34c-.5-.21-1.2-.07-1.37-.89s.35-1.26,1-1.66a21.44,21.44,0,0,1,8.65-3.07c1.35-.2,2.71-.31,4.06-.45a31.13,31.13,0,0,1,4.21,0,28,28,0,0,1,11.58,2.85c.38.21.75.44,1.12.67.62.37,1.15.76,1,1.65s-.86.69-1.37.9c-.17-.55.5-.91.29-1.51a1.18,1.18,0,0,0-1.49-.77c-1,.44-1,.44-1-.66,0-.07-.06-.12-.13-.15-.25,0-.36.14-.46.3a1.13,1.13,0,0,1-1.39.51c-4.49-1.26-9.09-1.15-13.68-1a24.15,24.15,0,0,0-6.24,1c-.77.22-1.52.36-2-.54a.32.32,0,0,0-.43-.16c-.13.07-.12.22-.1.36.14.72-.09.86-.74.53-.87-.44-1.48-.16-1.69.78-.07.31-.58.81.24,1C945.51,532.94,945.5,533.19,945.36,533.34Z" transform="translate(-934.89 -507.72)"/><path class="cls-3" d="M946.93,543a10.49,10.49,0,0,1-3.66-1.67l-1.11-.65a11.43,11.43,0,0,1,2.22-5.67.72.72,0,0,1,.28-.27,43.37,43.37,0,0,1,14.78-2.17,3.53,3.53,0,0,1-.16,2.93,21.32,21.32,0,0,1-4.79,0c-.16-.05-.34-.13-.36-.31-.15-1.06-.94-1.28-1.8-1.4-1.25-.18-1.78.26-1.86,1.5-.31.4-.79.45-1.22.61a3.77,3.77,0,0,0-2.33,2.12c-.81,1.59-.44,3.14.13,4.68A.29.29,0,0,1,946.93,543Z" transform="translate(-934.89 -507.72)"/><path class="cls-6" d="M943.53,548.93l-.08-.8c3.47,3.8,8,4.92,12.79,5.38a53.71,53.71,0,0,0,6.21.15,24.84,24.84,0,0,0,10.19-2.17,11.13,11.13,0,0,0,4.64-3.88c.25-.39.32-.08.47,0a10.28,10.28,0,0,1-5.59,5.59,23.46,23.46,0,0,1-9.51,2.11,1.62,1.62,0,0,1-.94-.27,2.53,2.53,0,0,0-2.41-.29,6.72,6.72,0,0,1-4.28.32,18.92,18.92,0,0,1-8.82-3.23A8.17,8.17,0,0,1,943.53,548.93Z" transform="translate(-934.89 -507.72)"/><path class="cls-3" d="M978.51,540.69c-1.11.63-2.22,1.27-3.34,1.88a1.25,1.25,0,0,1-1.12.22c-.35-.53,0-1,.13-1.5a4.49,4.49,0,0,0-.35-3.06,1.7,1.7,0,0,1-.28-.51,1.88,1.88,0,0,0-1-1.19l-.24-.16a5.38,5.38,0,0,0-2.4-.76c-.31,0-.68,0-.81-.4.4-.87.24-1.2-.68-1.36a2,2,0,0,0-2.42,1.4.51.51,0,0,1-.35.32,12,12,0,0,1-4.38-.15,3.27,3.27,0,0,1,0-2.8c4.2.1,8.39.23,12.32,2a1.63,1.63,0,0,0,1.52-.06.67.67,0,0,1,1,.26A13,13,0,0,1,978.51,540.69Z" transform="translate(-934.89 -507.72)"/><path class="cls-6" d="M954.63,556.12l2.45.21a3.89,3.89,0,0,0-.09,3,3.38,3.38,0,0,0,5.28,1.28c1.21-1,1.5-2.43.83-4.22.69-.32,1.45.31,2.11-.12.85,0,1,.12.65.83-.77,1.52-1.62,3-2.29,4.55-.18.4-.76.48-.76,1,0,1.14,0,2.27,0,3.41a2.18,2.18,0,0,1-.2,1.07,4.6,4.6,0,0,1-5.06,0c-.38-1.48-.09-3-.19-4.48-1.25-1.49-1.79-3.35-2.74-5l-.45-.78C953.8,556.35,954.09,556.17,954.63,556.12Z" transform="translate(-934.89 -507.72)"/><path class="cls-7" d="M945.36,533.34c0-.61-.6-.4-.85-.72.14-.25.61-.38.22-.86s.25-.57.48-.68c.57-.27,1.21-1.12,1.8,0a.38.38,0,0,0,.32.16c.19-.08.17-.26,0-.41-.33-.4-.4-.69.22-1s.66.2.78.55c.19.58.62.57,1,.44,4.6-1.39,9.32-1.27,14-1.11a26.53,26.53,0,0,1,6.6,1.07c.53.16.94.12,1.14-.45s.29-.78.9-.47.15.63.06,1c0,.12-.07.24-.12.4.13,0,.3,0,.31,0,.5-1.11,1.24-.65,1.92-.26.36.22.8.4.43,1.07-.14.24.25.79-.41.91-.06,0-.08.22-.12.34a19.57,19.57,0,0,0-6.95-1.76,56.83,56.83,0,0,0-9.22-.41c-3.76.19-7.54.34-11.16,1.55C946.33,532.89,945.86,533.13,945.36,533.34Z" transform="translate(-934.89 -507.72)"/><path class="cls-8" d="M954.63,556.12c-.14.2-.65.14-.29.67a19.66,19.66,0,0,1,2,4.07c.26.69.86,1,1.26,1.5a.91.91,0,0,0-.75,1.08c0,.37.08.79-.27,1.09-1.93-1.93-4.13-3.58-5.9-5.66a5.37,5.37,0,0,1-1.53-4.19A35,35,0,0,0,954.63,556.12Z" transform="translate(-934.89 -507.72)"/><path class="cls-4" d="M945.21,569.57a7.13,7.13,0,0,1-1.81-7.19,2.79,2.79,0,0,1,.34-.72c.31-.55.69-1.29,1.3-1.24s.38.9.53,1.39a29.56,29.56,0,0,0,4.08,8.18.42.42,0,0,1-.25.56A4.31,4.31,0,0,1,945.21,569.57Z" transform="translate(-934.89 -507.72)"/><path class="cls-2" d="M962.5,562.37c1.57-1.46,1.94-3.63,3.13-5.33.34-.49.25-.8-.42-.76,1.91-.45,3.86-.76,5.73-1.39.15,2-.93,3.5-2.23,4.81-1.67,1.68-3.45,3.25-5.19,4.86-.39-.32-.29-.78-.28-1.19A.9.9,0,0,0,962.5,562.37Z" transform="translate(-934.89 -507.72)"/><path class="cls-4" d="M970.5,570a25.65,25.65,0,0,0,4.28-9c.14-.64.37-.73.89-.23,1.5,1.45,1.85,4.28.79,6.73a6.19,6.19,0,0,1-1.68,2.21,4.22,4.22,0,0,1-4.06.89C970.49,570.41,970.37,570.24,970.5,570Z" transform="translate(-934.89 -507.72)"/><path class="cls-9" d="M956.45,519.68c0,1.87-.31,3.71-.42,5.57,0,.86-.79,1-1.38,1a18.28,18.28,0,0,0-3.54.57c-.69.18-1.09,0-.78-.8.43-1.15.15-2.39.48-3.55.41-1,1.37-1.22,2.17-1.65.42-.23.61.11.47.53a3.5,3.5,0,0,1-.68,1,.93.93,0,0,0,.09,1.35c.46.4.88.14,1.24-.2A3.22,3.22,0,0,0,955,521C955,519.83,955.34,519.57,956.45,519.68Z" transform="translate(-934.89 -507.72)"/><path class="cls-10" d="M938.36,553.66a4.45,4.45,0,0,1,.53-1.47c.42.76.77,1.44,1.16,2.1a8.18,8.18,0,0,0,4.27,3.67c.84.31.93.92.25,1.48a10.75,10.75,0,0,0-1.67,1.7c-1.08.09-1.71-.72-2.28-1.37A8,8,0,0,1,938.36,553.66Z" transform="translate(-934.89 -507.72)"/><path class="cls-11" d="M968.91,522.25c-.42,1.21,0,2.36.27,3.52.07.33.27.67.06,1s-.61.07-.92,0c-1.24-.22-2.49-.45-3.73-.63-.75-.11-1.05-.42-1.13-1.23a32.71,32.71,0,0,0-.35-4.07,1.35,1.35,0,0,1,.18-1c1-.27,1.19-.13,1.24.76a5.75,5.75,0,0,0,.34,2.06,2.35,2.35,0,0,0,.79,1,.78.78,0,0,0,1,0,.8.8,0,0,0,.22-1,10.45,10.45,0,0,0-.62-.91c-.16-.28-.45-.58-.13-.89s.58,0,.83.11C967.65,521.36,968.26,521.83,968.91,522.25Z" transform="translate(-934.89 -507.72)"/><path class="cls-5" d="M958,525.66c-.44.31-.87.45-.78-.34.28-2.5.63-5,.89-7.51.09-.78.43-1,1.16-1,2,0,2,0,2.21,2,0,.53.09,1.06.14,1.59-.25.5.12,1-.08,1.54-.08.24-.26-.08-.41.08-1.25,1.29-1.54,1.3-2.81.18C958.12,523.38,958.66,524.57,958,525.66Z" transform="translate(-934.89 -507.72)"/><path class="cls-12" d="M960.1,555.69a2.35,2.35,0,0,1,2.38,2.29,2.31,2.31,0,0,1-2.4,2.38,2.34,2.34,0,1,1,0-4.67Z" transform="translate(-934.89 -507.72)"/><path class="cls-13" d="M938.36,553.66a15,15,0,0,0,1,3.81,7.72,7.72,0,0,0,3.53,3.67,8.54,8.54,0,0,0-.69,2.05C938.78,561,937.1,557,938.36,553.66Z" transform="translate(-934.89 -507.72)"/><path class="cls-14" d="M958,525.66v-3.95c.46-.06.44.27.57.42.86,1,1.51,1,2.31,0,.28-.37.39-.43.54,0a3,3,0,0,1,0,2.52c0,.84-.1,1.39-1.2,1.2C959.56,525.72,958.76,526.13,958,525.66Z" transform="translate(-934.89 -507.72)"/><path class="cls-15" d="M956.45,519.68c-.94.06-1.33.52-1.23,1.49a2.94,2.94,0,0,1-1,2.62c-.54.47-1.13.7-1.67.09a1.17,1.17,0,0,1,0-1.78,3.17,3.17,0,0,0,.84-1.28,14.72,14.72,0,0,0-2.65,1.67c-.23-.15-.19-.32,0-.49a10.59,10.59,0,0,1,5.44-2.67C956.44,519.28,956.44,519.51,956.45,519.68Z" transform="translate(-934.89 -507.72)"/><path class="cls-15" d="M968.91,522.25c-1-.12-1.67-1.06-2.76-1.37a2.44,2.44,0,0,0,.77,1.28,1.16,1.16,0,1,1-1.69,1.56,3.48,3.48,0,0,1-.92-2.86c.08-.82-.25-1.1-1-1,0-.19-.41-.62.11-.49C965.45,519.88,967.48,520.5,968.91,522.25Z" transform="translate(-934.89 -507.72)"/><path class="cls-1" d="M975.51,570.47a5.69,5.69,0,0,1-4.79.81,2.43,2.43,0,0,0-2.2.53,4.9,4.9,0,0,1-.65-.64,2.35,2.35,0,0,1,1.65-1.4c.24.46.69-.06,1,.2.06.41.36.39.67.41a5.7,5.7,0,0,0,3.61-.73C975.08,569.8,975.07,570.42,975.51,570.47Z" transform="translate(-934.89 -507.72)"/><path class="cls-1" d="M951.21,571.6a2.08,2.08,0,0,0-1.86-.29,7.43,7.43,0,0,1-5.15-1.07,4.32,4.32,0,0,1,1-.67,5.67,5.67,0,0,0,3.66.81c.32,0,.68.06.78-.39l2,.79c.28,0,.5,0,.61.29C952,571.46,951.75,571.8,951.21,571.6Z" transform="translate(-934.89 -507.72)"/><path class="cls-16" d="M961.25,532.62v2.63a1.58,1.58,0,0,1-1.86,0,10.29,10.29,0,0,1,0-2.66Z" transform="translate(-934.89 -507.72)"/><path class="cls-17" d="M952.2,571l-.54-.26c-.36-.51-.94-.81-1.23-1.39.65.09,1.17-.41,1.8-.38a4,4,0,0,1,1.37,1.12c.28.28.72.54.64,1s-.66.32-1,.45A1,1,0,0,1,952.2,571Z" transform="translate(-934.89 -507.72)"/><path class="cls-17" d="M969.52,569.77l-1.68,1.39a.93.93,0,0,1-.93.38c-.4-.15-1,.05-1.17-.4s.46-.67.75-1,.69-.92,1.22-1.18a7.9,7.9,0,0,1,1.83.56Z" transform="translate(-934.89 -507.72)"/><path class="cls-18" d="M961.5,524.65l0-2.52c.15-.54-.17-1.14.2-1.66.15,1.52.3,3,.43,4.56,0,.26.22.74-.14.77-.51,0-.2-.51-.32-.77A2.4,2.4,0,0,1,961.5,524.65Z" transform="translate(-934.89 -507.72)"/><path class="cls-9" d="M961.87,527.27h-4.21A11,11,0,0,1,961.87,527.27Z" transform="translate(-934.89 -507.72)"/><path class="cls-19" d="M965,546.16c.08,1.55-2.27,4.06-4.15,4.43s-4.52-1.52-5.34-3.93c.45-.11.36.33.46.5a2.42,2.42,0,0,0,3.09.94,2,2,0,0,0,1-1.71c.07-.79-.47-.81-.92-1a2.73,2.73,0,0,1-1-.87.91.91,0,0,1,.28-1.45,3.87,3.87,0,0,1,3.55,0,.9.9,0,0,1,.33,1.43,1.85,1.85,0,0,1-1,.9,1,1,0,0,0-.85,1.43,1.71,1.71,0,0,0,1.57,1.45C963.94,548.37,964.16,548.21,965,546.16Z" transform="translate(-934.89 -507.72)"/><path class="cls-20" d="M973.75,537.69c0,.12,0,.22.1.28a5.1,5.1,0,0,1-.3,5.26l0,0c-2.46,3-5.49,3.23-8.88.58l-.79-.77a5.57,5.57,0,0,1-.62-6.09,1,1,0,0,1,.2-.28c3-2,6-1.68,9.07-.25l0,0A3,3,0,0,1,973.75,537.69Z" transform="translate(-934.89 -507.72)"/><path class="cls-21" d="M963.52,536.87c-.12.8-.61,1.47-.67,2.32a7.63,7.63,0,0,0,1,3.82c-1.17-.91-1.2-2.28-1.42-3.57,0-.51,0-1-.62-1.29a4.58,4.58,0,0,0-2-.16c-1.47,0-1.54.14-1.64,1.56a4.74,4.74,0,0,1-1.36,3.49l-.11-.11a.44.44,0,0,1,0-.39,5.77,5.77,0,0,0,.34-5.34.42.42,0,0,1,.12-.26c.61.16,1.12.78,1.85.39a24.67,24.67,0,0,1,2.58,0C962.41,537.65,962.92,537.07,963.52,536.87Z" transform="translate(-934.89 -507.72)"/><path class="cls-22" d="M964.69,543.78c.69.37,1.36.8,2.08,1.11a5,5,0,0,0,6.3-1.29c.14-.14.2-.43.5-.4a5,5,0,0,1-4.86,2.58C967.22,545.44,965.69,545.13,964.69,543.78Z" transform="translate(-934.89 -507.72)"/><path class="cls-23" d="M946.93,543v-.21l.14-.07c.34,0,.48.33.68.55a5,5,0,0,0,6.09,1.4,2.81,2.81,0,0,1,1.22-.41.27.27,0,0,1,.22.19C952.26,546.66,949,546.1,946.93,543Z" transform="translate(-934.89 -507.72)"/><path class="cls-22" d="M973.55,543.23c.42-1.34,1-2.65.61-4.12-.11-.37-.21-.76-.31-1.14,1,.88.75,2,.63,3.1a12.72,12.72,0,0,1-.43,1.72C973.92,543,973.81,543.19,973.55,543.23Z" transform="translate(-934.89 -507.72)"/><path class="cls-24" d="M961.86,538.15c1,.11,1,.23.62,1.29C961.93,539.18,962.11,538.56,961.86,538.15Z" transform="translate(-934.89 -507.72)"/><path class="cls-23" d="M956.88,543a3.25,3.25,0,0,1-1.59,1.45l-.1-.12a2.29,2.29,0,0,1,1.63-1.38Z" transform="translate(-934.89 -507.72)"/><path class="cls-25" d="M962.5,562.37c.62-.39,1-.29,1,.52l0,1.67v4.62a.81.81,0,0,1,.13.78c-.34.48-.73.43-1.15.12a3.48,3.48,0,0,1,0-2.91Z" transform="translate(-934.89 -507.72)"/><path class="cls-26" d="M963.5,570l0-.79a22.06,22.06,0,0,1,3-.41,3.52,3.52,0,0,1,1.16.23c-.38.91-1.23,1.42-1.85,2.13.35.17.76-.08,1,.24-.62.51-1.28.29-1.94.13C964.29,571.18,963.62,570.83,963.5,570Z" transform="translate(-934.89 -507.72)"/><path class="cls-27" d="M953.23,571.36c.22-.28.57-.08.92-.28L952.23,569c1.49-.44,2.94,0,4.41.19a.73.73,0,0,1,.16.76,2.7,2.7,0,0,1-1.61,1.53C954.52,571.66,953.85,571.89,953.23,571.36Z" transform="translate(-934.89 -507.72)"/><path class="cls-28" d="M956.65,570v-.79a16.6,16.6,0,0,0,0-4.67c0-.56,0-1.13,0-1.69s.37-.89,1-.48l0,4.84a3.13,3.13,0,0,1,.18,2C957.5,570.41,957.5,570.41,956.65,570Z" transform="translate(-934.89 -507.72)"/><path class="cls-29" d="M972.55,536.39a11.25,11.25,0,0,0-6.73-.64,10.21,10.21,0,0,0-2.3,1.12c-.64,0-1.27,0-1.9,0-.81,0-1.62,0-2.43,0a7.4,7.4,0,0,0-1.94.12l0,0c-1-.27-1.78-1-2.85-1.09a18.56,18.56,0,0,0-4.08.05,6.36,6.36,0,0,0-3.32,2h-.16c.29-1.43,1.5-1.85,2.62-2.37.29-.13.61-.22.91-.33,1.29-.39,2.57-.79,3.88,0a32,32,0,0,0,5.18,0l1.86,0a19.92,19.92,0,0,0,4.5,0,3.49,3.49,0,0,1,3.48,0,9.08,9.08,0,0,1,2.47.53C972,535.93,972.42,536,972.55,536.39Z" transform="translate(-934.89 -507.72)"/><path class="cls-30" d="M954.22,535.25l-3.88,0c-.28-1.18-.17-1.34,1-1.65a3.35,3.35,0,0,1,2.39.37A.87.87,0,0,1,954.22,535.25Z" transform="translate(-934.89 -507.72)"/><path class="cls-29" d="M946.94,542.83a4.45,4.45,0,0,1-.13-4.83l0,0a.51.51,0,0,1,.1.37,6.92,6.92,0,0,0,.18,3.8.64.64,0,0,1-.09.57A.17.17,0,0,0,946.94,542.83Z" transform="translate(-934.89 -507.72)"/><path class="cls-30" d="M969.24,535.25h-3.48a.82.82,0,0,1,0-.84c.63-.88,3-1.12,3.73-.34C970,534.56,969.78,535,969.24,535.25Z" transform="translate(-934.89 -507.72)"/><path class="cls-31" d="M973.75,537.69l-1.22-1.32A1.46,1.46,0,0,1,973.75,537.69Z" transform="translate(-934.89 -507.72)"/><path class="cls-32" d="M957.6,569.4l.09-2.2a6.7,6.7,0,0,0,4.77,0,25.09,25.09,0,0,0,.22,3c-.22.42-.62.32-1,.31h-3.09C957.52,570.5,957.52,570.5,957.6,569.4Z" transform="translate(-934.89 -507.72)"/><path class="cls-1" d="M957.6,569.4c0,.64.16.91.89.86,1.39-.09,2.79-.06,4.19-.08.23-.25.58,0,.82-.21a3.82,3.82,0,0,0,1.38,1.27c-.1.41-.58.35-.79.63a3.5,3.5,0,0,0-2.53-.63c-1.26,0-2.53,0-3.8,0a1.48,1.48,0,0,0-1,.19c-.49-.05-1.05.38-1.46-.21a3.88,3.88,0,0,0,1.4-1.24C957.21,570.19,957.5,570,957.6,569.4Z" transform="translate(-934.89 -507.72)"/><path class="cls-1" d="M955.25,571.23c.46.22,1-.15,1.46.21a4.36,4.36,0,0,1-5.5.16l1-.56c.35.09.64.36,1,.32A3.57,3.57,0,0,0,955.25,571.23Z" transform="translate(-934.89 -507.72)"/><path class="cls-1" d="M964.09,571.87c-.2-.8.52-.44.79-.63a3.7,3.7,0,0,0,2,.13l.93-.21c.43,0,.74.13.68.65A4,4,0,0,1,964.09,571.87Z" transform="translate(-934.89 -507.72)"/><path class="cls-33" d="M960.18,550.16a5.18,5.18,0,0,1-1-.17c-.35-.13-.9-.23-.72-.76a1,1,0,0,1,1.06-.71,2.56,2.56,0,0,0,1.26,0,.89.89,0,0,1,1.13.7c.17.55-.37.7-.76.82A6.51,6.51,0,0,1,960.18,550.16Z" transform="translate(-934.89 -507.72)"/><path class="cls-34" d="M965.69,536.34a8.9,8.9,0,0,1,5.7.08,3.49,3.49,0,0,1,2.42,3.55c0,2-.63,3.59-2.55,4.46a.81.81,0,0,1-1.12-.36c-1.49-2.35-2.93-4.73-4.41-7.08C965.6,536.78,965.51,536.56,965.69,536.34Z" transform="translate(-934.89 -507.72)"/><path class="cls-35" d="M965.69,536.34l3.68,6c.29.48.57,1,.87,1.45s.48.74,1,.63c-2,1.48-5.43,0-6.8-1.68a4.54,4.54,0,0,1-1-4.39A2.67,2.67,0,0,1,965.69,536.34Z" transform="translate(-934.89 -507.72)"/><path class="cls-3" d="M961.63,536.6c.64,0,1.32-.27,1.89.27h0c-.46.49-.8,1.28-1.69.65A.59.59,0,0,1,961.63,536.6Z" transform="translate(-934.89 -507.72)"/><path class="cls-36" d="M947,542.77a6.52,6.52,0,0,1-.19-4.74,5.13,5.13,0,0,1,4.78-2.46,12.71,12.71,0,0,1,3.37.19,5.36,5.36,0,0,1,2.22,1.24,5.62,5.62,0,0,1-.4,6l-1.63,1.38a11.22,11.22,0,0,1-3.06,1.06A5.35,5.35,0,0,1,947,542.77Z" transform="translate(-934.89 -507.72)"/><path class="cls-37" d="M961.63,536.6a1.46,1.46,0,0,0,.2.92l-2.94,0a1,1,0,0,1,.06-.92A12,12,0,0,1,961.63,536.6Z" transform="translate(-934.89 -507.72)"/><path class="cls-38" d="M959,536.64c.25.32,0,.61-.06.92-.85.66-1.16-.22-1.64-.59C957.66,536.09,958.37,536.69,959,536.64Z" transform="translate(-934.89 -507.72)"/><path class="cls-34" d="M949.81,544.6c-2.07-.84-3.09-2.7-2.84-5.19.19-1.77,1.42-2.93,3.63-3.3a8.62,8.62,0,0,1,4.45.22c.27.41,0,.69-.23,1-1.32,2.19-2.75,4.31-4,6.52A1.24,1.24,0,0,1,949.81,544.6Z" transform="translate(-934.89 -507.72)"/><path class="cls-35" d="M949.81,544.6c.93-.71,1.26-1.84,1.87-2.77a58.21,58.21,0,0,0,3.37-5.5c1.78.41,2.59,1.71,2.4,3.88C957.17,543.44,952.76,546,949.81,544.6Z" transform="translate(-934.89 -507.72)"/></svg>